<?xml version="1.0" standalone="no"?><!DOCTYPE svg PUBLIC "-//W3C//DTD SVG 1.1//EN" "http://www.w3.org/Graphics/SVG/1.1/DTD/svg11.dtd"><svg t="1736845549529" class="icon" viewBox="0 0 1024 1024" version="1.1" xmlns="http://www.w3.org/2000/svg" p-id="4253" xmlns:xlink="http://www.w3.org/1999/xlink" width="200" height="200"><path d="M360.2 806.97c-7.3 0-14.61-2.79-20.18-8.36L72.98 531.58c-11.15-11.15-11.15-29.22 0-40.37 11.15-11.15 29.22-11.15 40.37 0l267.03 267.03c11.15 11.15 11.15 29.22 0 40.37-5.58 5.58-12.88 8.36-20.18 8.36z" fill="#ffffff" p-id="4254"></path><path d="M93.78 539.92c-7.3 0-14.61-2.79-20.18-8.36-11.15-11.15-11.15-29.22 0-40.37l265.8-265.8c11.15-11.15 29.22-11.15 40.37 0 11.15 11.15 11.15 29.22 0 40.37l-265.8 265.8c-5.58 5.58-12.89 8.36-20.19 8.36z" fill="#ffffff" p-id="4255"></path><path d="M930.83 540.24H93.46c-15.76 0-28.55-12.79-28.55-28.55 0-15.76 12.79-28.55 28.55-28.55h837.37c15.76 0 28.55 12.79 28.55 28.55 0 15.76-12.78 28.55-28.55 28.55z" fill="#ffffff" p-id="4256"></path></svg>